%TF.GenerationSoftware,KiCad,Pcbnew,10.0.6*%
%TF.CreationDate,2026-09-11T20:54:58+08:00*%
%TF.ProjectId,LilyCam,4c696c79-4361-46d2-9e6b-696361645f70,rev?*%
%TF.SameCoordinates,Original*%
%TF.FileFunction,Copper,L2,Bot*%
%TF.FilePolarity,Positive*%
%FSLAX46Y46*%
G04 Gerber Fmt 4.6, Leading zero omitted, Abs format (unit mm)*
G04 Created by KiCad (PCBNEW 10.0.6) date 2026-09-11 20:54:58*
%MOMM*%
%LPD*%
G01*
G04 APERTURE LIST*
%TA.AperFunction,ComponentPad*%
%ADD10C,1.524000*%
%TD*%
%TA.AperFunction,ComponentPad*%
%ADD11C,2.000000*%
%TD*%
%TA.AperFunction,ComponentPad*%
%ADD12R,1.700000X1.700000*%
%TD*%
%TA.AperFunction,ComponentPad*%
%ADD13C,1.700000*%
%TD*%
%TA.AperFunction,ViaPad*%
%ADD14C,0.600000*%
%TD*%
%TA.AperFunction,ViaPad*%
%ADD15C,0.900000*%
%TD*%
%TA.AperFunction,Conductor*%
%ADD16C,0.200000*%
%TD*%
%TA.AperFunction,Conductor*%
%ADD17C,0.500000*%
%TD*%
G04 APERTURE END LIST*
D10*
%TO.P,U1,1,D0_1*%
%TO.N,/1*%
X52260000Y-89260000D03*
%TO.P,U1,2,D1_2*%
%TO.N,/2*%
X52260000Y-91800000D03*
%TO.P,U1,3,D2_3*%
%TO.N,/DC*%
X52260000Y-94340000D03*
%TO.P,U1,4,D3_4*%
%TO.N,/RES*%
X52260000Y-96880000D03*
%TO.P,U1,5,D4_5*%
%TO.N,/3*%
X52260000Y-99420000D03*
%TO.P,U1,6,D5_6*%
%TO.N,unconnected-(U1-D5-Pad6)*%
X52260000Y-101960000D03*
%TO.P,U1,7,D6_7*%
%TO.N,unconnected-(U1-D6-Pad7)*%
X52260000Y-104500000D03*
%TO.P,U1,8,D7_8*%
%TO.N,unconnected-(U1-D7-Pad8)*%
X67500000Y-104500000D03*
%TO.P,U1,9,D8_9*%
%TO.N,/SCL*%
X67500000Y-101960000D03*
%TO.P,U1,10,D9_10*%
%TO.N,unconnected-(U1-D9-Pad10)*%
X67500000Y-99420000D03*
%TO.P,U1,11,D10_11*%
%TO.N,/SDA*%
X67500000Y-96880000D03*
%TO.P,U1,12,3V3_OUT_12*%
%TO.N,+3.3V*%
X67500000Y-94340000D03*
%TO.P,U1,13,GND_13*%
%TO.N,GND*%
X67500000Y-91800000D03*
%TO.P,U1,14,VBUS_14*%
%TO.N,unconnected-(U1-VBUS-Pad14)*%
X67500000Y-89260000D03*
%TD*%
D11*
%TO.P,SW3,1,1_1*%
%TO.N,/1*%
X84500000Y-116750000D03*
X78000000Y-116750000D03*
%TO.P,SW3,2,2_2*%
%TO.N,GND*%
X84500000Y-121250000D03*
X78000000Y-121250000D03*
%TD*%
D12*
%TO.P,J1,1,Pin_1_1*%
%TO.N,GND*%
X67500000Y-109500000D03*
D13*
%TO.P,J1,2,Pin_2_2*%
%TO.N,+3.3V*%
X64960000Y-109500000D03*
%TO.P,J1,3,Pin_3_3*%
%TO.N,/SCL*%
X62420000Y-109500000D03*
%TO.P,J1,4,Pin_4_4*%
%TO.N,/SDA*%
X59880000Y-109500000D03*
%TO.P,J1,5,Pin_5_5*%
%TO.N,/RES*%
X57340000Y-109500000D03*
%TO.P,J1,6,Pin_6_6*%
%TO.N,/DC*%
X54800000Y-109500000D03*
%TD*%
D11*
%TO.P,SW1,1,1_1*%
%TO.N,/2*%
X84500000Y-95000000D03*
X78000000Y-95000000D03*
%TO.P,SW1,2,2_2*%
%TO.N,GND*%
X84500000Y-99500000D03*
X78000000Y-99500000D03*
%TD*%
%TO.P,SW2,1,1_1*%
%TO.N,/3*%
X84500000Y-105500000D03*
X78000000Y-105500000D03*
%TO.P,SW2,2,2_2*%
%TO.N,GND*%
X84500000Y-110000000D03*
X78000000Y-110000000D03*
%TD*%
D14*
%TO.N,/1*%
X75000000Y-101000000D03*
D15*
%TO.N,GND*%
X72000000Y-92000000D03*
D14*
%TO.N,/3*%
X74000000Y-103500000D03*
%TD*%
%TO.N,/1*%
D16*
X75000000Y-113500000D02*
X75000000Y-101000000D01*
X84500000Y-116500000D02*
X78000000Y-116500000D01*
X78000000Y-116500000D02*
X75000000Y-113500000D01*
%TO.N,GND*%
D17*
X84500000Y-121000000D02*
X86500000Y-119000000D01*
X84500000Y-99500000D02*
X87000000Y-97000000D01*
X86250000Y-112000000D02*
X84500000Y-110250000D01*
X84500000Y-99500000D02*
X78000000Y-99500000D01*
X86250000Y-118750000D02*
X86250000Y-112000000D01*
X84500000Y-110250000D02*
X76750000Y-110250000D01*
X87000000Y-97000000D02*
X87000000Y-93500000D01*
X73500000Y-116750000D02*
X77750000Y-121000000D01*
X76750000Y-110250000D02*
X76000000Y-109500000D01*
X77750000Y-121000000D02*
X84500000Y-121000000D01*
X76000000Y-101500000D02*
X78000000Y-99500000D01*
X87000000Y-93500000D02*
X73500000Y-93500000D01*
X67500000Y-116750000D02*
X73500000Y-116750000D01*
X86500000Y-119000000D02*
X86250000Y-118750000D01*
X67500000Y-116750000D02*
X67500000Y-109500000D01*
X73500000Y-93500000D02*
X72000000Y-92000000D01*
X76000000Y-109500000D02*
X76000000Y-101500000D01*
%TO.N,/2*%
D16*
X53738000Y-93278000D02*
X52260000Y-91800000D01*
X73500000Y-95000000D02*
X73250000Y-95000000D01*
X70278000Y-93278000D02*
X53738000Y-93278000D01*
X84500000Y-95000000D02*
X78000000Y-95000000D01*
X73500000Y-95000000D02*
X72000000Y-95000000D01*
X78000000Y-95000000D02*
X73500000Y-95000000D01*
X72000000Y-95000000D02*
X70278000Y-93278000D01*
%TO.N,/3*%
X52260000Y-99420000D02*
X64080000Y-99420000D01*
X65500000Y-98000000D02*
X65500000Y-97378105D01*
X74000000Y-98500000D02*
X74000000Y-103500000D01*
X64080000Y-99420000D02*
X65500000Y-98000000D01*
X65500000Y-97378105D02*
X67060105Y-95818000D01*
X67060105Y-95818000D02*
X71318000Y-95818000D01*
X71318000Y-95818000D02*
X74000000Y-98500000D01*
%TO.N,/SCL*%
X66000000Y-103460000D02*
X67500000Y-101960000D01*
X66000000Y-106420000D02*
X66000000Y-103460000D01*
X62420000Y-110000000D02*
X66000000Y-106420000D01*
%TO.N,/SDA*%
X59880000Y-110000000D02*
X65440000Y-104440000D01*
X65440000Y-104440000D02*
X65440000Y-98940000D01*
X65440000Y-98940000D02*
X67500000Y-96880000D01*
%TD*%
M02*
