%TF.GenerationSoftware,KiCad,Pcbnew,10.0.6*%
%TF.CreationDate,2026-09-11T20:54:58+08:00*%
%TF.ProjectId,LilyCam,4c696c79-4361-46d2-9e6b-696361645f70,rev?*%
%TF.SameCoordinates,Original*%
%TF.FileFunction,Legend,Top*%
%TF.FilePolarity,Positive*%
%FSLAX46Y46*%
G04 Gerber Fmt 4.6, Leading zero omitted, Abs format (unit mm)*
G04 Created by KiCad (PCBNEW 10.0.6) date 2026-09-11 20:54:58*
%MOMM*%
%LPD*%
G01*
G04 APERTURE LIST*
%ADD10C,0.100000*%
%ADD11C,0.500000*%
%ADD12C,0.150000*%
%ADD13C,0.101600*%
%ADD14C,0.127000*%
%ADD15C,0.504000*%
G04 APERTURE END LIST*
D10*
X51256265Y-146586704D02*
X51732455Y-146586704D01*
X51161027Y-146872419D02*
X51494360Y-145872419D01*
X51494360Y-145872419D02*
X51827693Y-146872419D01*
X52922932Y-146872419D02*
X52922932Y-146205752D01*
X52922932Y-146300990D02*
X52970551Y-146253371D01*
X52970551Y-146253371D02*
X53065789Y-146205752D01*
X53065789Y-146205752D02*
X53208646Y-146205752D01*
X53208646Y-146205752D02*
X53303884Y-146253371D01*
X53303884Y-146253371D02*
X53351503Y-146348609D01*
X53351503Y-146348609D02*
X53351503Y-146872419D01*
X53351503Y-146348609D02*
X53399122Y-146253371D01*
X53399122Y-146253371D02*
X53494360Y-146205752D01*
X53494360Y-146205752D02*
X53637217Y-146205752D01*
X53637217Y-146205752D02*
X53732456Y-146253371D01*
X53732456Y-146253371D02*
X53780075Y-146348609D01*
X53780075Y-146348609D02*
X53780075Y-146872419D01*
X54256265Y-146872419D02*
X54256265Y-146205752D01*
X54256265Y-145872419D02*
X54208646Y-145920038D01*
X54208646Y-145920038D02*
X54256265Y-145967657D01*
X54256265Y-145967657D02*
X54303884Y-145920038D01*
X54303884Y-145920038D02*
X54256265Y-145872419D01*
X54256265Y-145872419D02*
X54256265Y-145967657D01*
X54732455Y-146205752D02*
X54732455Y-146872419D01*
X54732455Y-146300990D02*
X54780074Y-146253371D01*
X54780074Y-146253371D02*
X54875312Y-146205752D01*
X54875312Y-146205752D02*
X55018169Y-146205752D01*
X55018169Y-146205752D02*
X55113407Y-146253371D01*
X55113407Y-146253371D02*
X55161026Y-146348609D01*
X55161026Y-146348609D02*
X55161026Y-146872419D01*
X55637217Y-146872419D02*
X55637217Y-146205752D01*
X55637217Y-145872419D02*
X55589598Y-145920038D01*
X55589598Y-145920038D02*
X55637217Y-145967657D01*
X55637217Y-145967657D02*
X55684836Y-145920038D01*
X55684836Y-145920038D02*
X55637217Y-145872419D01*
X55637217Y-145872419D02*
X55637217Y-145967657D01*
X57303883Y-146824800D02*
X57208645Y-146872419D01*
X57208645Y-146872419D02*
X57018169Y-146872419D01*
X57018169Y-146872419D02*
X56922931Y-146824800D01*
X56922931Y-146824800D02*
X56875312Y-146777180D01*
X56875312Y-146777180D02*
X56827693Y-146681942D01*
X56827693Y-146681942D02*
X56827693Y-146396228D01*
X56827693Y-146396228D02*
X56875312Y-146300990D01*
X56875312Y-146300990D02*
X56922931Y-146253371D01*
X56922931Y-146253371D02*
X57018169Y-146205752D01*
X57018169Y-146205752D02*
X57208645Y-146205752D01*
X57208645Y-146205752D02*
X57303883Y-146253371D01*
X58161026Y-146872419D02*
X58161026Y-146348609D01*
X58161026Y-146348609D02*
X58113407Y-146253371D01*
X58113407Y-146253371D02*
X58018169Y-146205752D01*
X58018169Y-146205752D02*
X57827693Y-146205752D01*
X57827693Y-146205752D02*
X57732455Y-146253371D01*
X58161026Y-146824800D02*
X58065788Y-146872419D01*
X58065788Y-146872419D02*
X57827693Y-146872419D01*
X57827693Y-146872419D02*
X57732455Y-146824800D01*
X57732455Y-146824800D02*
X57684836Y-146729561D01*
X57684836Y-146729561D02*
X57684836Y-146634323D01*
X57684836Y-146634323D02*
X57732455Y-146539085D01*
X57732455Y-146539085D02*
X57827693Y-146491466D01*
X57827693Y-146491466D02*
X58065788Y-146491466D01*
X58065788Y-146491466D02*
X58161026Y-146443847D01*
X58637217Y-146872419D02*
X58637217Y-146205752D01*
X58637217Y-146300990D02*
X58684836Y-146253371D01*
X58684836Y-146253371D02*
X58780074Y-146205752D01*
X58780074Y-146205752D02*
X58922931Y-146205752D01*
X58922931Y-146205752D02*
X59018169Y-146253371D01*
X59018169Y-146253371D02*
X59065788Y-146348609D01*
X59065788Y-146348609D02*
X59065788Y-146872419D01*
X59065788Y-146348609D02*
X59113407Y-146253371D01*
X59113407Y-146253371D02*
X59208645Y-146205752D01*
X59208645Y-146205752D02*
X59351502Y-146205752D01*
X59351502Y-146205752D02*
X59446741Y-146253371D01*
X59446741Y-146253371D02*
X59494360Y-146348609D01*
X59494360Y-146348609D02*
X59494360Y-146872419D01*
D11*
X53900375Y-144862095D02*
X51519423Y-144862095D01*
X51519423Y-144862095D02*
X51519423Y-139862095D01*
X55567042Y-144862095D02*
X55567042Y-141528761D01*
X55567042Y-139862095D02*
X55328946Y-140100190D01*
X55328946Y-140100190D02*
X55567042Y-140338285D01*
X55567042Y-140338285D02*
X55805137Y-140100190D01*
X55805137Y-140100190D02*
X55567042Y-139862095D01*
X55567042Y-139862095D02*
X55567042Y-140338285D01*
X58662279Y-144862095D02*
X58186089Y-144624000D01*
X58186089Y-144624000D02*
X57947994Y-144147809D01*
X57947994Y-144147809D02*
X57947994Y-139862095D01*
X60090851Y-141528761D02*
X61281327Y-144862095D01*
X62471804Y-141528761D02*
X61281327Y-144862095D01*
X61281327Y-144862095D02*
X60805137Y-146052571D01*
X60805137Y-146052571D02*
X60567042Y-146290666D01*
X60567042Y-146290666D02*
X60090851Y-146528761D01*
X67233709Y-144385904D02*
X66995613Y-144624000D01*
X66995613Y-144624000D02*
X66281328Y-144862095D01*
X66281328Y-144862095D02*
X65805137Y-144862095D01*
X65805137Y-144862095D02*
X65090851Y-144624000D01*
X65090851Y-144624000D02*
X64614661Y-144147809D01*
X64614661Y-144147809D02*
X64376566Y-143671619D01*
X64376566Y-143671619D02*
X64138470Y-142719238D01*
X64138470Y-142719238D02*
X64138470Y-142004952D01*
X64138470Y-142004952D02*
X64376566Y-141052571D01*
X64376566Y-141052571D02*
X64614661Y-140576380D01*
X64614661Y-140576380D02*
X65090851Y-140100190D01*
X65090851Y-140100190D02*
X65805137Y-139862095D01*
X65805137Y-139862095D02*
X66281328Y-139862095D01*
X66281328Y-139862095D02*
X66995613Y-140100190D01*
X66995613Y-140100190D02*
X67233709Y-140338285D01*
X71519423Y-144862095D02*
X71519423Y-142243047D01*
X71519423Y-142243047D02*
X71281328Y-141766857D01*
X71281328Y-141766857D02*
X70805137Y-141528761D01*
X70805137Y-141528761D02*
X69852756Y-141528761D01*
X69852756Y-141528761D02*
X69376566Y-141766857D01*
X71519423Y-144624000D02*
X71043232Y-144862095D01*
X71043232Y-144862095D02*
X69852756Y-144862095D01*
X69852756Y-144862095D02*
X69376566Y-144624000D01*
X69376566Y-144624000D02*
X69138470Y-144147809D01*
X69138470Y-144147809D02*
X69138470Y-143671619D01*
X69138470Y-143671619D02*
X69376566Y-143195428D01*
X69376566Y-143195428D02*
X69852756Y-142957333D01*
X69852756Y-142957333D02*
X71043232Y-142957333D01*
X71043232Y-142957333D02*
X71519423Y-142719238D01*
X73900376Y-144862095D02*
X73900376Y-141528761D01*
X73900376Y-142004952D02*
X74138471Y-141766857D01*
X74138471Y-141766857D02*
X74614661Y-141528761D01*
X74614661Y-141528761D02*
X75328947Y-141528761D01*
X75328947Y-141528761D02*
X75805138Y-141766857D01*
X75805138Y-141766857D02*
X76043233Y-142243047D01*
X76043233Y-142243047D02*
X76043233Y-144862095D01*
X76043233Y-142243047D02*
X76281328Y-141766857D01*
X76281328Y-141766857D02*
X76757519Y-141528761D01*
X76757519Y-141528761D02*
X77471804Y-141528761D01*
X77471804Y-141528761D02*
X77947995Y-141766857D01*
X77947995Y-141766857D02*
X78186090Y-142243047D01*
X78186090Y-142243047D02*
X78186090Y-144862095D01*
D12*
X84238095Y-144804819D02*
X84238095Y-143804819D01*
X84238095Y-144281009D02*
X84809523Y-144281009D01*
X84809523Y-144804819D02*
X84809523Y-143804819D01*
X85190476Y-143804819D02*
X85809523Y-143804819D01*
X85809523Y-143804819D02*
X85476190Y-144185771D01*
X85476190Y-144185771D02*
X85619047Y-144185771D01*
X85619047Y-144185771D02*
X85714285Y-144233390D01*
X85714285Y-144233390D02*
X85761904Y-144281009D01*
X85761904Y-144281009D02*
X85809523Y-144376247D01*
X85809523Y-144376247D02*
X85809523Y-144614342D01*
X85809523Y-144614342D02*
X85761904Y-144709580D01*
X85761904Y-144709580D02*
X85714285Y-144757200D01*
X85714285Y-144757200D02*
X85619047Y-144804819D01*
X85619047Y-144804819D02*
X85333333Y-144804819D01*
X85333333Y-144804819D02*
X85238095Y-144757200D01*
X85238095Y-144757200D02*
X85190476Y-144709580D01*
X44238095Y-144804819D02*
X44238095Y-143804819D01*
X44238095Y-144281009D02*
X44809523Y-144281009D01*
X44809523Y-144804819D02*
X44809523Y-143804819D01*
X45714285Y-144138152D02*
X45714285Y-144804819D01*
X45476190Y-143757200D02*
X45238095Y-144471485D01*
X45238095Y-144471485D02*
X45857142Y-144471485D01*
X84238095Y-87304819D02*
X84238095Y-86304819D01*
X84238095Y-86781009D02*
X84809523Y-86781009D01*
X84809523Y-87304819D02*
X84809523Y-86304819D01*
X85809523Y-87304819D02*
X85238095Y-87304819D01*
X85523809Y-87304819D02*
X85523809Y-86304819D01*
X85523809Y-86304819D02*
X85428571Y-86447676D01*
X85428571Y-86447676D02*
X85333333Y-86542914D01*
X85333333Y-86542914D02*
X85238095Y-86590533D01*
D13*
X49183479Y-97338809D02*
X49697526Y-97338809D01*
X49697526Y-97338809D02*
X49758002Y-97308571D01*
X49758002Y-97308571D02*
X49788241Y-97278333D01*
X49788241Y-97278333D02*
X49818479Y-97217857D01*
X49818479Y-97217857D02*
X49818479Y-97096904D01*
X49818479Y-97096904D02*
X49788241Y-97036428D01*
X49788241Y-97036428D02*
X49758002Y-97006190D01*
X49758002Y-97006190D02*
X49697526Y-96975952D01*
X49697526Y-96975952D02*
X49183479Y-96975952D01*
X49818479Y-96340952D02*
X49818479Y-96703809D01*
X49818479Y-96522381D02*
X49183479Y-96522381D01*
X49183479Y-96522381D02*
X49274193Y-96582857D01*
X49274193Y-96582857D02*
X49334669Y-96643333D01*
X49334669Y-96643333D02*
X49364907Y-96703809D01*
D12*
X44238095Y-87304819D02*
X44238095Y-86304819D01*
X44238095Y-86781009D02*
X44809523Y-86781009D01*
X44809523Y-87304819D02*
X44809523Y-86304819D01*
X45238095Y-86400057D02*
X45285714Y-86352438D01*
X45285714Y-86352438D02*
X45380952Y-86304819D01*
X45380952Y-86304819D02*
X45619047Y-86304819D01*
X45619047Y-86304819D02*
X45714285Y-86352438D01*
X45714285Y-86352438D02*
X45761904Y-86400057D01*
X45761904Y-86400057D02*
X45809523Y-86495295D01*
X45809523Y-86495295D02*
X45809523Y-86590533D01*
X45809523Y-86590533D02*
X45761904Y-86733390D01*
X45761904Y-86733390D02*
X45190476Y-87304819D01*
X45190476Y-87304819D02*
X45809523Y-87304819D01*
%TO.C,U1*%
D14*
X50990000Y-105389000D02*
X50990000Y-88244000D01*
X52895000Y-107294000D02*
X66865000Y-107294000D01*
X55385000Y-86339000D02*
X55388728Y-85328728D01*
X55888728Y-84829000D02*
X63884000Y-84829000D01*
X64384000Y-85329000D02*
X64384000Y-86339000D01*
D10*
X66865000Y-86339000D02*
X52895000Y-86339000D01*
D14*
X66865000Y-86339000D02*
X52895000Y-86339000D01*
X68770000Y-105389000D02*
X68770000Y-88244000D01*
X50990000Y-88244000D02*
G75*
G02*
X52895000Y-86339000I1905000J0D01*
G01*
X52895000Y-107294000D02*
G75*
G02*
X50990000Y-105389000I1J1905001D01*
G01*
X55388728Y-85328728D02*
G75*
G02*
X55888728Y-84829028I499972J-272D01*
G01*
X63884000Y-84829000D02*
G75*
G02*
X64384000Y-85329000I0J-500000D01*
G01*
X66865000Y-86339000D02*
G75*
G02*
X68770000Y-88244000I0J-1905000D01*
G01*
X68770000Y-105389000D02*
G75*
G02*
X66865000Y-107294000I-1905001J1D01*
G01*
D15*
X51228000Y-86480000D02*
G75*
G02*
X50724000Y-86480000I-252000J0D01*
G01*
X50724000Y-86480000D02*
G75*
G02*
X51228000Y-86480000I252000J0D01*
G01*
X52371000Y-87360000D02*
G75*
G02*
X51867000Y-87360000I-252000J0D01*
G01*
X51867000Y-87360000D02*
G75*
G02*
X52371000Y-87360000I252000J0D01*
G01*
%TD*%
M02*
